<svg xmlns="http://www.w3.org/2000/svg" viewBox="0 0 512 512" style="enable-background:new 0 0 512 512" xml:space="preserve"><circle style="fill:#fddf6d" cx="256.002" cy="256.001" r="245.994"/><path style="fill:#fcc56b" d="M308.715 465.677c-135.858 0-245.993-110.134-245.993-245.993 0-72.584 31.443-137.816 81.444-182.842C64.528 77.561 10.008 160.412 10.008 256c0 135.858 110.134 245.993 245.993 245.993 63.274 0 120.962-23.898 164.549-63.149-33.553 17.154-71.562 26.833-111.835 26.833z"/><circle style="fill:#fff" cx="213.157" cy="179.852" r="30.022"/><circle style="fill:#fff" cx="382.188" cy="179.852" r="30.022"/><path style="fill:#fff" d="m450.053 362.055-24.974 36.265-41.943-28.884c-10.014-6.896-12.543-20.604-5.645-30.62 6.896-10.014 20.604-12.543 30.62-5.645l41.942 28.884z"/><path d="M473.266 120.542c-24.643-39.446-59.525-71.47-100.878-92.613-4.918-2.514-10.951-.567-13.466 4.355-2.516 4.921-.567 10.949 4.355 13.466 38.125 19.493 70.29 49.024 93.014 85.397 23.352 37.379 35.694 80.552 35.694 124.853 0 130.124-105.862 235.985-235.984 235.985S20.015 386.122 20.015 255.999 125.878 20.015 256.001 20.015c5.528 0 10.007-4.479 10.007-10.007S261.529 0 256.001 0c-141.16 0-256 114.84-256 255.999 0 141.16 114.84 256.001 256 256.001C397.159 512 512 397.16 512 256c.001-48.055-13.393-94.896-38.734-135.458z"/><path d="M213.164 219.884c22.072 0 40.029-17.957 40.029-40.029s-17.957-40.029-40.029-40.029-40.029 17.957-40.029 40.029 17.957 40.029 40.029 40.029zm0-60.044c11.036 0 20.015 8.979 20.015 20.015 0 11.036-8.979 20.015-20.015 20.015s-20.015-8.979-20.015-20.015c0-11.036 8.977-20.015 20.015-20.015zM382.187 219.884c22.072 0 40.029-17.957 40.029-40.029s-17.957-40.029-40.029-40.029-40.029 17.957-40.029 40.029 17.956 40.029 40.029 40.029zm0-60.044c11.036 0 20.015 8.979 20.015 20.015 0 11.036-8.979 20.015-20.015 20.015s-20.015-8.979-20.015-20.015c0-11.036 8.977-20.015 20.015-20.015zM264.858 332.121h-20.015v-12.453a10.005 10.005 0 0 0-10.007-10.007 10.005 10.005 0 0 0-10.007 10.007v12.453h-18.013v-12.453a10.005 10.005 0 0 0-10.007-10.007 10.005 10.005 0 0 0-10.007 10.007v12.453h-6.768a10.005 10.005 0 0 0-10.007 10.007 10.005 10.005 0 0 0 10.007 10.007h25.239v16.235a10.005 10.005 0 0 0 10.007 10.007 10.005 10.005 0 0 0 10.007-10.007v-16.235h19.39v16.235c0 5.528 4.479 10.007 10.007 10.007s10.007-4.479 10.007-10.007v-16.235h19.291v16.235c0 5.528 4.479 10.007 10.007 10.007s10.007-4.479 10.007-10.007v-16.235h18.236v16.235a10.005 10.005 0 0 0 10.007 10.007 10.005 10.005 0 0 0 10.007-10.007v-16.235h21.377c.189 9.978 5.008 19.73 13.835 25.81l41.943 28.883a9.96 9.96 0 0 0 5.667 1.767 9.996 9.996 0 0 0 8.251-4.333l24.974-36.265a10.007 10.007 0 0 0-2.566-13.917l-41.944-28.884c-14.108-9.714-33.323-6.539-43.603 6.925h-7.253v-12.453c0-5.528-4.479-10.007-10.007-10.007s-10.007 4.479-10.007 10.007v12.453h-20.459v-12.453c0-5.528-4.479-10.007-10.007-10.007s-10.007 4.479-10.007 10.007v12.453h-17.569v-12.453a10.005 10.005 0 0 0-10.007-10.007 10.005 10.005 0 0 0-10.007 10.007l.001 12.453zm120.874 12.639c2.327-3.378 6.087-5.194 9.909-5.194 2.347 0 4.718.686 6.793 2.114l33.702 23.209-13.622 19.781-33.701-23.208c-5.455-3.757-6.837-11.249-3.081-16.702z"/><circle cx="330.337" cy="23.412" r="10.007"/></svg>